<svg id="Layer_1" data-name="Layer 1" xmlns="http://www.w3.org/2000/svg" viewBox="0 0 513.24 362"><path style="fill: currentColor;" d="M723.15,319H441v.44L254.51,477.72c-14.34,12.17-14.34,32.83,0,45L441,681v-.1H723.15c18.7,0,33.85-13.78,33.85-30.78V349.77C757,332.78,741.85,319,723.15,319ZM625.6,506.28l64.53,64.52a8.27,8.27,0,0,1,0,11.68l-11.27,11.27a8.25,8.25,0,0,1-11.68,0l-64.53-64.52a8.25,8.25,0,0,0-11.68,0L580.24,540l-54,54a8.25,8.25,0,0,1-11.68,0l-11.28-11.27a8.27,8.27,0,0,1,0-11.68l54-54L568,506.28a8.25,8.25,0,0,0,0-11.68l-11.08-11.09-54-54a8.27,8.27,0,0,1,0-11.68l11.27-11.27a8.25,8.25,0,0,1,11.68,0l54,54L591,471.65a8.27,8.27,0,0,0,11.68,0l64.88-64.88a8.25,8.25,0,0,1,11.68,0L690.48,418a8.25,8.25,0,0,1,0,11.68L625.6,494.6A8.27,8.27,0,0,0,625.6,506.28Z" transform="translate(-243.76 -319)"/></svg>
