<svg xmlns="http://www.w3.org/2000/svg" viewBox="0 0 562 600"><defs><style>.cls-1{fill:#00924e;}.cls-2{fill:#6ca965;}.cls-3{fill:#fff;fill-rule:evenodd;}</style></defs><g id="Layer_4" data-name="Layer 4"><rect class="cls-1" y="38" width="562" height="562"/></g><g id="Layer_1" data-name="Layer 1"><rect class="cls-2" width="562" height="562"/></g><g id="Layer_3" data-name="Layer 3"><path class="cls-3" d="M118,417.09c.75-7.88,9.42-17.39,22-18.08,10.1-.55,19.9,4.76,23.88,13.37a47.56,47.56,0,0,0,6.43,13.36A53.36,53.36,0,0,0,179.52,436a30.62,30.62,0,0,0,11.94,4.71,32.62,32.62,0,0,0,11,0,27.63,27.63,0,0,0,8.26-4.71c4.77-4,6.36-8.39,7.66-12.06,2.11-6,4.44-10.85,5.51-17,4.07-23.61,52.85-185.14,70.4-243.76a137.41,137.41,0,0,1,13.78-34.6,149.64,149.64,0,0,1,19.28-26.73,65.85,65.85,0,0,1,21.35-14.94,73.93,73.93,0,0,1,26.63-6.29c13.29-.59,25.64,2,35.36,7.47a58.08,58.08,0,0,1,11.48,8.65,65.61,65.61,0,0,1,9.64,11.79A77.49,77.49,0,0,1,444,145a21.11,21.11,0,0,1-2.75,7.86,23.67,23.67,0,0,1-13.09,10.61,26.65,26.65,0,0,1-22.5-3.14,20.14,20.14,0,0,1-8.5-12.19,25.07,25.07,0,0,0-.91-11.79c-2.06-6.24-6.3-13.58-14-15.34-5.52-1.26-11,.65-14.23,2.36-5.88,3.1-8.28,7.68-10.1,11-2.76,5-5.72,9-8.27,14.15-2.44,4.9-4.86,10.13-6.43,14.16a158.43,158.43,0,0,0-5,15.72c-1.83,6.62-3.88,13.22-6.2,20.06L264,435.18a67.5,67.5,0,0,1-19.29,28.31,72.49,72.49,0,0,1-19.05,12.19,76.93,76.93,0,0,1-28,6.29,79.57,79.57,0,0,1-39.95-9.83c-8-4.28-19.12-13.19-28.47-26.74a127.36,127.36,0,0,1-8.72-16.51,26.57,26.57,0,0,1-2.3-7.47A19.9,19.9,0,0,1,118,417.09Z"/></g></svg>